<?xml version="1.0" encoding="utf-8"?>
<!-- Generator: Adobe Illustrator 26.0.3, SVG Export Plug-In . SVG Version: 6.00 Build 0)  -->
<svg version="1.0" id="Layer_1" xmlns="http://www.w3.org/2000/svg" xmlns:xlink="http://www.w3.org/1999/xlink" x="0px" y="0px"
	 viewBox="0 0 888.1 612.8" style="enable-background:new 0 0 888.1 612.8;" xml:space="preserve">
<style type="text/css">
	.st0{fill-rule:evenodd;clip-rule:evenodd;}
	.st1{fill-rule:evenodd;clip-rule:evenodd;fill:#CA2171;}
	.st2{fill-rule:evenodd;clip-rule:evenodd;fill:#961D59;}
</style>
<path class="st0" d="M374.8,279.6c0-20.8,12.1-33,40.5-33c10.4,0,20.8,1.3,30.9,3.8l-2.4,18.6c-9.2-1.7-18.5-2.7-27.8-2.9
	c-14.9,0-19.6,5.1-19.6,17.2V327c0,12.1,4.8,17.2,19.6,17.2c9.3-0.2,18.7-1.2,27.8-2.9l2.4,18.6c-10.1,2.5-20.5,3.7-30.9,3.8
	c-28.3,0-40.5-12.1-40.5-33L374.8,279.6L374.8,279.6z M492.3,363.8c-28.5,0-36.2-15.7-36.2-32.8v-21c0-17.1,7.7-32.8,36.2-32.8
	c28.5,0,36.2,15.7,36.2,32.8v21C528.5,348.1,520.8,363.8,492.3,363.8L492.3,363.8z M492.3,294.9c-11.1,0-15.4,5-15.4,14.4v22.4
	c0,9.4,4.3,14.4,15.4,14.4s15.4-5,15.4-14.4v-22.4C507.7,299.9,503.4,294.9,492.3,294.9L492.3,294.9z M591.8,362.1V304
	c0-4.4-1.9-6.7-6.7-6.7c-5.1,0-14.2,3.1-21.7,7v57.7h-20.8v-83.2h15.9l2,7c10.4-5.1,23.6-8.7,33.3-8.7c13.8,0,18.8,9.7,18.8,24.6
	v60.3L591.8,362.1z M655.5,363.8c-9.7-0.2-19.4-1.8-28.7-4.8l2.9-15.9c8.1,2.3,16.4,3.5,24.8,3.6c9.2,0,10.6-2,10.6-8.4
	c0-5.1-1-7.7-14.5-10.9c-20.3-5-22.7-10.1-22.7-26.1c0-16.7,7.3-24.1,31.1-24.1c8.4,0,16.8,1,24.9,2.9l-2,16.6
	c-7.6-1.4-15.2-2.2-22.9-2.4c-9,0-10.6,2-10.6,7.2c0,6.7,0.5,7.2,11.8,10.1c23.2,6.1,25.4,9.2,25.4,26.3
	C685.6,353.9,680.6,363.8,655.5,363.8L655.5,363.8z M720.1,278.9V337c0,4.4,1.9,6.7,6.7,6.7c5.1,0,14.2-3.1,21.7-7v-57.7h20.9v83.2
	h-15.9l-2-7c-10.4,5.1-23.6,8.7-33.3,8.7c-13.8,0-18.8-9.7-18.8-24.6v-60.3H720.1z M787.2,362.1V244.9L808,242v120.1L787.2,362.1z"
	/>
<path class="st1" d="M220.9,306.2c0,0.7,0.1,1.4,0.2,2.1c0.1,0.7,0.3,1.4,0.6,2c0.3,0.6,0.6,1.3,1,1.8c0.4,0.6,0.8,1.1,1.3,1.6
	c0.5,0.5,1,0.9,1.6,1.3c0.6,0.4,1.2,0.7,1.8,1c0.6,0.3,1.3,0.5,2,0.6c0.7,0.1,1.4,0.2,2.1,0.2c5.8,0,10.6-4.7,10.6-10.5
	c0,0,0,0,0-0.1c0-0.7-0.1-1.4-0.2-2.1c-0.1-0.7-0.3-1.4-0.6-2c-0.3-0.6-0.6-1.3-1-1.8c-1.2-1.7-2.8-3.1-4.8-3.9
	c-0.6-0.3-1.3-0.5-2-0.6c-0.7-0.1-1.4-0.2-2.1-0.2c-0.7,0-1.4,0.1-2.1,0.2c-0.7,0.1-1.4,0.3-2,0.6c-0.6,0.3-1.3,0.6-1.8,1
	c-1.2,0.8-2.2,1.8-2.9,2.9c-0.4,0.6-0.7,1.2-1,1.8c-0.3,0.6-0.5,1.3-0.6,2C220.9,304.8,220.9,305.5,220.9,306.2L220.9,306.2z
	 M270.4,326.8c0.1-0.3,0.1-0.6,0.2-0.9c1-5.8-3-11.3-8.8-12.2c-5.4-0.9-10.7,2.5-12,7.9c-0.2,0.7-0.3,1.4-0.3,2c0,0.7,0,1.4,0.1,2.1
	c0.1,0.7,0.3,1.4,0.5,2c0.2,0.7,0.5,1.3,0.9,1.9c0.4,0.6,0.8,1.2,1.2,1.7c0.5,0.5,1,1,1.5,1.4c0.6,0.4,1.2,0.8,1.8,1.1
	c0.6,0.3,1.3,0.5,2,0.7c0.7,0.2,1.4,0.3,2.1,0.3c0.7,0,1.4,0,2.1-0.1c0.7-0.1,1.4-0.3,2-0.5c0.7-0.2,1.3-0.5,1.9-0.9
	c0.6-0.4,1.2-0.8,1.7-1.2c0.5-0.5,1-1,1.4-1.5c0.4-0.6,0.8-1.2,1.1-1.8C270,328.1,270.3,327.4,270.4,326.8z M250.1,291.5
	c1.3,5.7,7.1,9.3,12.8,7.9c0,0,0,0,0,0c1-0.2,2-0.6,2.9-1.1c0.9-0.5,1.7-1.2,2.4-1.9c0.7-0.8,1.3-1.6,1.8-2.6c0.5-0.9,0.8-2,0.9-3
	c0.2-1.4,0.2-2.8-0.1-4.1c-1.3-5.7-7-9.3-12.8-7.9C252.4,280.1,248.8,285.8,250.1,291.5L250.1,291.5z M292.1,313.3
	c-5.7-1.1-11.3,2.8-12.3,8.5c0,0,0,0.1,0,0.1c-0.3,1.4-0.2,2.8,0.1,4.1c0.1,0.7,0.4,1.4,0.7,2c0.3,0.6,0.6,1.2,1,1.8
	c0.8,1.1,1.8,2.1,3,2.9c0.6,0.4,1.2,0.7,1.9,0.9c0.6,0.2,1.3,0.4,2,0.5c5.7,1.1,11.2-2.8,12.3-8.5c0,0,0-0.1,0-0.1
	c0-0.3,0.1-0.7,0.2-1C301.3,319.1,297.5,314.2,292.1,313.3L292.1,313.3z M279.9,290.3c0.1,0.7,0.3,1.4,0.5,2
	c0.2,0.7,0.6,1.3,0.9,1.9c0.4,0.6,0.8,1.1,1.3,1.6c0.5,0.5,1,1,1.6,1.4c0.6,0.4,1.2,0.7,1.8,1c0.6,0.3,1.3,0.5,2,0.7
	c0.7,0.2,1.4,0.3,2.1,0.3c0.7,0,1.4,0,2.1-0.1c1.1-0.2,2.3-0.6,3.3-1.1c0.5-0.3,1-0.6,1.5-0.9c0.5-0.4,0.9-0.7,1.3-1.2
	c0.4-0.4,0.8-0.9,1.1-1.4c0.3-0.5,0.6-1,0.8-1.5c0.2-0.5,0.4-1.1,0.6-1.6c0.2-0.6,0.3-1.1,0.3-1.7c0.1-0.9,0-1.8-0.1-2.7
	c-0.1-0.7-0.3-1.4-0.5-2c-0.2-0.6-0.6-1.3-0.9-1.9c-0.7-1.2-1.7-2.2-2.8-3c-1.1-0.8-2.4-1.4-3.8-1.7c-0.7-0.2-1.4-0.2-2.1-0.3
	c-0.7,0-1.4,0-2.1,0.1c-0.7,0.1-1.4,0.3-2,0.5c-0.7,0.2-1.3,0.6-1.9,0.9c-1.2,0.7-2.2,1.7-3,2.8c-0.4,0.6-0.7,1.2-1,1.8
	c-0.3,0.6-0.5,1.3-0.7,2C279.8,287.5,279.7,288.9,279.9,290.3L279.9,290.3z M280.7,347.8c-0.6-0.3-1.2-0.6-1.9-0.9
	c-0.7-0.2-1.3-0.4-2-0.5c-1.4-0.2-2.8-0.1-4.1,0.3c-0.7,0.2-1.3,0.4-1.9,0.8c-0.6,0.3-1.2,0.7-1.8,1.1c-0.6,0.4-1.1,0.9-1.5,1.4
	c-0.5,0.5-0.9,1.1-1.2,1.7c-2.9,5.1-1.1,11.6,4.1,14.5c0.6,0.3,1.2,0.6,1.8,0.8c0.6,0.2,1.3,0.4,2,0.5c1.4,0.2,2.8,0.1,4.1-0.3
	c0.7-0.2,1.4-0.4,2-0.8c1.2-0.6,2.4-1.5,3.3-2.5c0.5-0.5,0.9-1.1,1.2-1.7c0.8-1.3,1.2-2.8,1.3-4.4c0.2-2-0.2-4-1.2-5.8
	c-0.5-0.9-1.1-1.7-1.8-2.5C282.4,348.9,281.5,348.3,280.7,347.8L280.7,347.8z M280.8,264.9c0.7-0.4,1.4-0.9,2.1-1.5
	c0.6-0.6,1.2-1.3,1.6-2c0.5-0.7,0.8-1.5,1.1-2.3c0.3-0.8,0.4-1.7,0.5-2.5c0.3-2.1-0.2-4.3-1.3-6.1c-0.4-0.6-0.8-1.2-1.2-1.7
	c-0.5-0.5-1-1-1.5-1.4c-0.6-0.4-1.1-0.8-1.8-1.1c-0.6-0.3-1.3-0.6-2-0.8c-0.7-0.2-1.3-0.3-2-0.4c-0.7-0.1-1.4-0.1-2.1,0
	c-2.1,0.2-4.1,1.1-5.6,2.5c-0.5,0.5-1,1-1.4,1.5c-0.9,1.1-1.5,2.4-1.9,3.7c-0.2,0.7-0.3,1.4-0.4,2c-0.1,0.7-0.1,1.4,0,2.1
	c0.1,0.7,0.2,1.3,0.4,2c0.2,0.7,0.5,1.3,0.8,1.9c0.4,0.6,0.8,1.2,1.2,1.7c0.5,0.5,1,1,1.5,1.4c0.6,0.4,1.1,0.8,1.8,1.1
	c0.6,0.3,1.3,0.6,1.9,0.8c0.7,0.2,1.4,0.3,2.1,0.4c0.7,0.1,1.4,0,2.1,0c0.7-0.1,1.4-0.2,2-0.4C279.5,265.4,280.1,265.1,280.8,264.9
	L280.8,264.9z M187.1,391.6c-47,0.2-85.3-37.8-85.5-84.9c-0.1-22.7,8.9-44.5,25-60.5c2-2,4.1-3.9,6.2-5.6s4.4-3.4,6.8-5
	s4.7-3,7.2-4.3s5-2.5,7.6-3.6s5.2-2,7.9-2.8c2.7-0.8,5.4-1.5,8.1-2s5.5-0.9,8.3-1.2c2.8-0.3,5.6-0.4,8.4-0.4
	c18.8-0.1,37,6.1,51.9,17.5l13.1-17c-42.6-32.4-102.6-28.4-140.6,9.3c-41.7,41.6-41.7,109.1-0.1,150.7
	c20.1,20.1,47.4,31.4,75.8,31.3c23.5,0.1,46.3-7.6,64.9-21.9l-13-17c-3.7,2.8-7.6,5.3-11.7,7.5c-8.2,4.4-17.1,7.4-26.3,8.9
	C196.3,391.3,191.7,391.6,187.1,391.6L187.1,391.6z"/>
<path class="st2" d="M163.5,306.2c0,12.7,10.3,23.1,23,23.1c12.7,0,23.1-10.3,23.1-23c0-12.7-10.3-23.1-23-23.1c0,0-0.1,0-0.1,0
	c-1.5,0-3,0.1-4.5,0.4c-0.7,0.1-1.5,0.3-2.2,0.5c-0.7,0.2-1.4,0.5-2.1,0.8c-0.7,0.3-1.4,0.6-2,1c-0.7,0.4-1.3,0.7-1.9,1.2
	c-0.6,0.4-1.2,0.9-1.8,1.4c-0.6,0.5-1.1,1-1.7,1.5c-0.5,0.5-1,1.1-1.5,1.7s-0.9,1.2-1.3,1.8c-0.8,1.3-1.6,2.6-2.1,4
	c-0.3,0.7-0.5,1.4-0.8,2.1s-0.4,1.5-0.5,2.2C163.7,303.3,163.5,304.8,163.5,306.2L163.5,306.2z"/>
</svg>
